<?xml version="1.0"?>
<svg width="150" height="55" xmlns="http://www.w3.org/2000/svg" xmlns:svg="http://www.w3.org/2000/svg" preserveAspectRatio="xMidYMid meet" version="1.0">
 <g class="layer">
  <title>Layer 1</title>
  <g id="svg_1">
   <path d="m145.51,1.76c-1.42,0.31 -2.7,0.66 -2.81,0.78c-0.31,0.29 -0.33,48.78 -0.01,49.13c0.29,0.33 5.54,0.33 5.83,0c0.16,-0.18 0.21,-6.03 0.21,-25.15c0,-24.63 -0.01,-25.48 -0.51,-25.37c-0.07,0.02 -1.27,0.29 -2.7,0.6l-0.01,0.01z" fill="#bfbfbf" id="svg_2"/>
   <path d="m3.18,2.97c-1.37,0.55 -2.45,2.25 -2.45,3.81c0.01,1.42 1.29,3.08 2.7,3.54c3.07,0.97 5.83,-2.13 4.6,-5.17c-0.78,-1.97 -2.97,-2.95 -4.86,-2.16l0,-0.01l0.01,0l0,-0.01z" fill="#bfbfbf" id="svg_3"/>
   <path d="m89.78,6.45c-0.09,0.14 -0.38,1.97 -0.64,4.06c-0.26,2.09 -0.52,4.04 -0.58,4.33l-0.09,0.53l-2.2,0.06l-2.18,0.06l-0.05,3.07l-0.05,3.08l2.26,0l2.26,0l0.05,10.97c0.07,10.88 0.07,11.01 0.47,12.36c0.92,3.17 2.17,4.86 4.41,6.07c1.84,0.97 3.4,1.15 6.28,0.7l2.26,-0.35l0.05,-2.97l0.05,-2.97l-2.45,0c-1.47,0 -2.6,-0.08 -2.82,-0.21c-0.87,-0.51 -1.53,-1.44 -1.86,-2.68c-0.33,-1.17 -0.35,-1.86 -0.35,-11.09l0,-9.84l3.73,0l3.74,0l-0.05,-3.08l-0.05,-3.07l-3.68,-0.06l-3.69,-0.04l-0.04,-4.55l-0.05,-4.53l-2.28,-0.06c-1.69,-0.04 -2.33,0.02 -2.45,0.19l0.01,0.01l-0.01,0.01z" fill="#bfbfbf" id="svg_4"/>
   <path d="m25.66,15.41c-2.03,0.23 -4.01,0.9 -5.95,1.96c-4.35,2.38 -6.21,6.07 -5.43,10.8c0.6,3.75 3.16,6.44 7.09,7.48c2.1,0.55 3.02,0.66 7.02,0.84c4.22,0.19 5.62,0.43 6.97,1.2c1.06,0.6 1.46,1.37 1.46,2.79c0,2.01 -1,3.4 -3.14,4.28c-1.77,0.74 -3.14,0.97 -5.73,0.97c-3.71,0 -6.92,-0.97 -9.9,-3.01c-0.8,-0.55 -1.59,-1.07 -1.75,-1.17c-0.26,-0.16 -0.55,0.19 -1.87,2.18c-1.27,1.89 -1.53,2.42 -1.37,2.64c0.33,0.45 2.57,1.96 4.16,2.79c4.32,2.28 8.87,3.22 13.27,2.75c3.59,-0.37 6.66,-1.52 8.97,-3.4c1.54,-1.23 2.43,-2.55 3.21,-4.76c0.38,-1.11 0.45,-1.6 0.45,-3.36c-0.01,-4.33 -1.58,-7.05 -5.14,-8.87c-2.24,-1.15 -4.44,-1.59 -9.07,-1.77c-5.19,-0.21 -6.79,-0.63 -7.89,-1.97c-0.59,-0.72 -0.7,-0.97 -0.7,-1.7c0,-1.62 1.3,-3.05 3.49,-3.86c1.18,-0.43 1.54,-0.47 4.58,-0.47c2.68,0 3.52,0.08 4.49,0.37c1.42,0.43 2.7,1.03 2.7,1.29c0,0.09 0.16,0.66 0.36,1.27l0.36,1.1l2.36,-0.06l2.38,-0.06l0.05,-3.28l0.04,-3.28l-1.59,-0.86c-3.05,-1.62 -5.76,-2.46 -9.25,-2.83c-2.12,-0.21 -2.69,-0.21 -4.65,0.02l0.01,-0.01l0.01,0l0,-0.01z" fill="#bfbfbf" id="svg_5"/>
   <path d="m62.32,15.41c-1.72,0.21 -3.88,1 -5.73,2.03c-3.37,1.89 -5.93,4.88 -7.53,8.71c-1.18,2.87 -1.4,4.06 -1.4,7.59c0,2.79 0.04,3.17 0.51,4.78c1.74,6.21 5.76,10.7 11.31,12.65c8.67,3.07 18.27,-2.75 20.87,-12.65c1.1,-4.16 0.68,-9.04 -1.1,-12.93c-2.53,-5.59 -7.72,-9.57 -13.31,-10.21c-0.95,-0.09 -1.89,-0.18 -2.05,-0.18c-0.16,0.02 -0.87,0.09 -1.58,0.19l0,0.01l0,0.01l0.01,0zm5.46,7.4c2.38,0.9 4.96,3.44 6.04,5.93c1.84,4.23 1.11,9.27 -1.79,12.59c-2.26,2.6 -4.6,3.73 -7.65,3.75c-2.93,0 -5.38,-1.07 -7.48,-3.32c-1.99,-2.11 -3.02,-4.45 -3.21,-7.38c-0.14,-2.09 0.16,-3.67 1,-5.66c1.2,-2.73 3.99,-5.33 6.57,-6.11c2.01,-0.6 4.56,-0.53 6.5,0.19l0.01,0l-0.01,0l0.02,0.01z" fill="#bfbfbf" id="svg_6"/>
   <path d="m120.32,15.41c-0.78,0.09 -2.2,0.47 -3.16,0.82c-6.57,2.48 -10.94,9.45 -10.94,17.42c0,7.36 3.52,13.59 9.46,16.71c2.24,1.17 4.06,1.6 6.94,1.6c4.56,-0.02 8.1,-1.37 11.28,-4.3c0.6,-0.57 1.15,-1.2 1.21,-1.4c0.07,-0.29 -0.31,-0.97 -1.59,-2.83c-0.94,-1.34 -1.77,-2.44 -1.84,-2.44c-0.09,-0.02 -0.59,0.43 -1.13,0.97c-2.26,2.26 -4.81,3.32 -8.05,3.32c-2.92,0.02 -4.92,-0.92 -7.09,-3.34c-1,-1.11 -1.47,-1.81 -1.96,-2.97c-0.36,-0.84 -0.7,-1.81 -0.75,-2.21l-0.11,-0.68l12.63,0l12.62,0l-0.07,-3.08c-0.09,-2.58 -0.17,-3.34 -0.55,-4.8c-1.39,-5.17 -4.13,-8.84 -8.3,-11.13c-2.77,-1.52 -5.48,-2.03 -8.59,-1.66l0,-0.01l-0.01,0l0,0.01zm4.81,7.26c1.4,0.47 2.9,1.54 4.06,2.93c1.06,1.27 1.51,2.09 1.8,3.3l0.17,0.74l-9.18,0c-5.05,0 -9.18,-0.06 -9.18,-0.11c0,-0.48 1.25,-2.81 2.01,-3.75c1.15,-1.42 2.28,-2.26 3.92,-2.91c2.12,-0.82 4.25,-0.9 6.39,-0.19l0,-0.01l0.01,0z" fill="#bfbfbf" id="svg_7"/>
   <path d="m1.63,15.63c-0.29,0.33 -0.29,35.71 0,36.05c0.29,0.33 5.54,0.33 5.83,0c0.29,-0.33 0.29,-35.71 0,-36.05c-0.14,-0.16 -1.04,-0.23 -2.92,-0.23c-1.87,0 -2.77,0.08 -2.92,0.23l0.01,0z" fill="#bfbfbf" id="svg_8"/>
  </g>
 </g>
</svg>